<?xml version="1.0" encoding="UTF-8"?>
<svg version="1.1" xmlns="http://www.w3.org/2000/svg" width="427" height="202">
<path d="M0,0 L427,0 L427,202 L0,202 Z M46,56 L46,57 L45,57 L45,58 L44,58 L44,59 L43,59 L43,60 L42,60 L42,167 L43,167 L43,168 L44,168 L44,169 L45,169 L45,170 L46,170 L46,171 L125,171 L125,170 L126,170 L126,169 L127,169 L127,168 L128,168 L128,166 L129,166 L129,61 L128,61 L128,59 L127,59 L127,58 L126,58 L126,57 L125,57 L125,56 Z M147,90 L147,92 L146,92 L146,96 L147,96 L147,98 L148,98 L148,99 L149,99 L149,100 L150,100 L150,101 L151,101 L151,102 L152,102 L152,103 L153,103 L153,104 L154,104 L154,105 L152,105 L152,104 L150,104 L150,103 L149,103 L149,104 L147,104 L147,105 L146,105 L146,110 L147,110 L147,111 L148,111 L148,112 L149,112 L149,113 L150,113 L150,114 L151,114 L151,115 L152,115 L152,116 L153,116 L153,117 L148,117 L148,118 L147,118 L147,119 L146,119 L146,136 L147,136 L147,137 L152,137 L152,136 L153,136 L153,135 L154,135 L154,125 L166,125 L166,124 L167,124 L167,122 L168,122 L168,120 L167,120 L167,118 L166,118 L166,117 L165,117 L165,116 L164,116 L164,115 L163,115 L163,114 L162,114 L162,113 L161,113 L161,112 L160,112 L160,111 L162,111 L162,112 L164,112 L164,111 L166,111 L166,110 L167,110 L167,109 L168,109 L168,107 L167,107 L167,105 L166,105 L166,104 L165,104 L165,103 L164,103 L164,102 L163,102 L163,101 L162,101 L162,100 L161,100 L161,99 L160,99 L160,98 L181,98 L181,97 L182,97 L182,96 L183,96 L183,95 L184,95 L184,96 L185,96 L185,94 L183,94 L183,91 L182,91 L182,90 Z M187,90 L187,92 L186,92 L186,96 L187,96 L187,97 L188,97 L188,98 L191,98 L191,97 L193,97 L193,96 L194,96 L194,92 L193,92 L193,91 L192,91 L192,90 Z M258,90 L258,91 L257,91 L257,125 L258,125 L258,127 L259,127 L259,129 L260,129 L260,131 L261,131 L261,132 L262,132 L262,133 L263,133 L263,134 L265,134 L265,135 L267,135 L267,136 L269,136 L269,137 L277,137 L277,136 L278,136 L278,134 L279,134 L279,133 L278,133 L278,130 L276,130 L276,129 L272,129 L272,128 L270,128 L270,127 L268,127 L268,126 L267,126 L267,124 L266,124 L266,123 L265,123 L265,110 L277,110 L277,109 L278,109 L278,107 L279,107 L279,106 L278,106 L278,103 L276,103 L276,102 L265,102 L265,92 L264,92 L264,91 L263,91 L263,90 Z M358,90 L358,91 L357,91 L357,117 L356,117 L356,121 L357,121 L357,136 L358,136 L358,137 L363,137 L363,136 L364,136 L364,135 L367,135 L367,136 L369,136 L369,137 L379,137 L379,136 L381,136 L381,135 L383,135 L383,134 L385,134 L385,133 L386,133 L386,132 L387,132 L387,131 L388,131 L388,130 L389,130 L389,128 L390,128 L390,126 L391,126 L391,122 L392,122 L392,118 L391,118 L391,114 L390,114 L390,111 L389,111 L389,110 L388,110 L388,108 L387,108 L387,107 L386,107 L386,106 L384,106 L384,105 L383,105 L383,104 L381,104 L381,103 L377,103 L377,102 L372,102 L372,103 L368,103 L368,104 L366,104 L366,105 L365,105 L365,92 L364,92 L364,91 L363,91 L363,90 Z M184,91 L184,92 L186,92 L186,91 Z M185,96 L185,97 L186,97 L186,96 Z M190,100 L190,101 L191,101 L191,100 Z M188,102 L188,103 L187,103 L187,104 L186,104 L186,136 L187,136 L187,137 L192,137 L192,136 L193,136 L193,135 L194,135 L194,104 L193,104 L193,103 L192,103 L192,102 Z M199,102 L199,103 L197,103 L197,106 L196,106 L196,134 L197,134 L197,136 L198,136 L198,137 L203,137 L203,136 L204,136 L204,134 L205,134 L205,116 L206,116 L206,114 L207,114 L207,113 L208,113 L208,112 L209,112 L209,111 L212,111 L212,110 L216,110 L216,109 L217,109 L217,108 L218,108 L218,104 L217,104 L217,103 L216,103 L216,102 L211,102 L211,103 L207,103 L207,104 L205,104 L205,105 L204,105 L204,103 L202,103 L202,102 Z M228,102 L228,103 L225,103 L225,104 L224,104 L224,105 L223,105 L223,106 L222,106 L222,107 L221,107 L221,110 L220,110 L220,117 L221,117 L221,119 L222,119 L222,120 L223,120 L223,121 L224,121 L224,122 L226,122 L226,123 L229,123 L229,124 L246,124 L246,126 L247,126 L247,128 L246,128 L246,129 L229,129 L229,130 L228,130 L228,131 L227,131 L227,136 L228,136 L228,137 L247,137 L247,136 L250,136 L250,135 L251,135 L251,134 L252,134 L252,133 L253,133 L253,131 L254,131 L254,129 L255,129 L255,124 L254,124 L254,121 L253,121 L253,120 L252,120 L252,119 L251,119 L251,118 L250,118 L250,117 L248,117 L248,116 L230,116 L230,115 L229,115 L229,114 L228,114 L228,111 L229,111 L229,110 L246,110 L246,109 L247,109 L247,108 L248,108 L248,104 L247,104 L247,103 L246,103 L246,102 Z M283,90 L283,91 L282,91 L282,92 L281,92 L281,96 L282,96 L282,97 L283,97 L283,98 L309,98 L309,120 L308,120 L308,124 L307,124 L307,125 L306,125 L306,126 L305,126 L305,127 L304,127 L304,128 L301,128 L301,129 L296,129 L296,128 L294,128 L294,127 L292,127 L292,125 L291,125 L291,124 L290,124 L290,121 L289,121 L289,117 L288,117 L288,116 L286,116 L286,115 L284,115 L284,116 L283,116 L283,117 L282,117 L282,118 L281,118 L281,124 L282,124 L282,127 L283,127 L283,129 L284,129 L284,130 L285,130 L285,131 L286,131 L286,132 L287,132 L287,133 L288,133 L288,134 L289,134 L289,135 L291,135 L291,136 L294,136 L294,137 L303,137 L303,136 L306,136 L306,135 L308,135 L308,134 L310,134 L310,133 L311,133 L311,132 L312,132 L312,131 L313,131 L313,129 L314,129 L314,128 L315,128 L315,126 L316,126 L316,122 L318,122 L318,123 L319,123 L319,124 L320,124 L320,127 L321,127 L321,129 L322,129 L322,130 L323,130 L323,131 L324,131 L324,133 L326,133 L326,134 L327,134 L327,135 L329,135 L329,136 L332,136 L332,137 L341,137 L341,136 L344,136 L344,135 L346,135 L346,134 L347,134 L347,133 L348,133 L348,132 L349,132 L349,131 L350,131 L350,130 L351,130 L351,129 L352,129 L352,127 L353,127 L353,124 L354,124 L354,115 L353,115 L353,112 L352,112 L352,110 L351,110 L351,109 L350,109 L350,108 L349,108 L349,107 L348,107 L348,106 L347,106 L347,105 L345,105 L345,104 L344,104 L344,103 L340,103 L340,102 L333,102 L333,103 L330,103 L330,104 L328,104 L328,105 L326,105 L326,106 L325,106 L325,107 L324,107 L324,108 L323,108 L323,109 L322,109 L322,111 L321,111 L321,113 L320,113 L320,116 L319,116 L319,121 L318,121 L318,120 L317,120 L317,93 L316,93 L316,91 L315,91 L315,90 Z M194,103 L194,104 L195,104 L195,106 L196,106 L196,103 Z M219,106 L219,108 L218,108 L218,110 L219,110 L219,109 L220,109 L220,106 Z M255,120 L255,121 L256,121 L256,120 Z M255,123 L255,124 L256,124 L256,123 Z M195,134 L195,135 L196,135 L196,134 Z " fill="#000000" transform="translate(0,0)"/>
<path d="M0,0 L9,0 L9,6 L8,6 L8,14 L7,14 L7,20 L6,20 L6,25 L5,25 L5,30 L4,30 L4,34 L3,34 L3,36 L2,36 L2,35 L0,35 L0,34 L-3,34 L-3,33 L-6,33 L-6,32 L-9,32 L-9,31 L-12,31 L-12,30 L-15,30 L-15,29 L-17,29 L-17,30 L-18,30 L-18,35 L-19,35 L-19,40 L-20,40 L-20,44 L-21,44 L-21,48 L-19,48 L-19,47 L-15,47 L-15,46 L-11,46 L-11,45 L-7,45 L-7,44 L-3,44 L-3,43 L1,43 L1,42 L5,42 L5,61 L4,61 L4,63 L3,63 L3,62 L-1,62 L-1,61 L-4,61 L-4,60 L-8,60 L-8,59 L-11,59 L-11,58 L-15,58 L-15,57 L-18,57 L-18,56 L-23,56 L-23,62 L-24,62 L-24,69 L-25,69 L-25,78 L-26,78 L-26,89 L-27,89 L-27,90 L-28,90 L-28,91 L-30,91 L-30,92 L-36,92 L-36,91 L-38,91 L-38,90 L-39,90 L-39,86 L-40,86 L-40,81 L-41,81 L-41,77 L-42,77 L-42,73 L-43,73 L-43,68 L-44,68 L-44,62 L-45,62 L-45,57 L-46,57 L-46,51 L-47,51 L-47,44 L-48,44 L-48,36 L-49,36 L-49,25 L-50,25 L-50,20 L-51,20 L-51,10 L-48,10 L-48,9 L-44,9 L-44,8 L-41,8 L-41,7 L-37,7 L-37,6 L-32,6 L-32,5 L-28,5 L-28,4 L-23,4 L-23,3 L-16,3 L-16,2 L-10,2 L-10,1 L0,1 Z " fill="#000000" transform="translate(107,68)"/>
<path d="M0,0 L3,0 L3,1 L6,1 L6,2 L7,2 L7,3 L8,3 L8,4 L9,4 L9,5 L10,5 L10,7 L11,7 L11,13 L10,13 L10,15 L9,15 L9,16 L8,16 L8,17 L6,17 L6,18 L4,18 L4,19 L-1,19 L-1,18 L-3,18 L-3,17 L-5,17 L-5,15 L-6,15 L-6,14 L-7,14 L-7,11 L-8,11 L-8,9 L-7,9 L-7,5 L-6,5 L-6,4 L-5,4 L-5,3 L-4,3 L-4,2 L-3,2 L-3,1 L0,1 Z " fill="#000000" transform="translate(335,110)"/>
<path d="M0,0 L2,0 L2,1 L5,1 L5,2 L7,2 L7,3 L8,3 L8,4 L9,4 L9,6 L10,6 L10,14 L9,14 L9,15 L8,15 L8,16 L7,16 L7,17 L6,17 L6,18 L4,18 L4,19 L-2,19 L-2,18 L-4,18 L-4,17 L-5,17 L-5,16 L-6,16 L-6,15 L-7,15 L-7,13 L-8,13 L-8,6 L-7,6 L-7,5 L-6,5 L-6,3 L-5,3 L-5,2 L-3,2 L-3,1 L0,1 Z " fill="#000000" transform="translate(373,110)"/>
</svg>
